<svg xmlns="http://www.w3.org/2000/svg" xmlns:xlink="http://www.w3.org/1999/xlink" id="Layer_1" x="0px" y="0px" viewBox="0 0 173.4 133.33" style="enable-background:new 0 0 173.4 133.33;" xml:space="preserve"> <style type="text/css"> .st0{fill:#EF3A4B;} </style> <path class="st0" d="M173.14,37.05c-1.05-2.14-3.32-3.32-4.46-5.47c-1.3-2.44-2.06-5.21-3.57-7.57c-1.14-1.77-2.52-3.41-4.12-4.75 c-3.57-3.03-7.74-5.17-11.65-7.78c-2.19-1.43-4.37-3.03-6.14-4.96c-1.43-1.6-2.73-3.78-4.67-4.83c-4.25-2.4-9.92,0.34-14.04,2.44 c-1.6-0.34-3.24,0.55-3.62,2.1c-0.63,0.04-1.22,0.13-1.85,0.21c-0.42,0.04-0.71,0.38-0.63,0.8c0.63,2.52-0.63,5.04-0.13,7.57 c0.34,1.77,1.3,3.2,2.61,4.41c0.92,0.84,2.31,2.48,3.74,2.1c0.92-0.25,1.22-1.01,1.3-1.85c3.78-0.8,7.44-2.9,9.8-6.01 c1.85,1.72,3.49,3.7,4.62,5.97c1.47,2.94,1.81,6.05,2.69,9.21c0.42,1.51,1.09,2.86,1.89,4.08c1.72,1.6,3.32,2.52,5.68,2.77 c1.51,0.17,3.07,0.34,4.54,0.63c0.04,0,0.04,0.08,0,0.08c-1.98,0.17-3.95,0.21-5.89,0.17c-0.76,0-1.43-0.25-2.06-0.59 c-3.7-0.04-7.32-1.3-11.01-0.08c-0.46,0.17-0.92,0.38-1.39,0.59c-0.34,0.13-0.67,0.29-1.05,0.42c-0.59,0.25-1.01,0.67-1.39,1.14 c-0.5,0.59-0.92,1.22-1.51,1.68c-2.06,1.68-3.87,3.66-5.55,5.76c-0.04,0.08-0.17,0-0.17-0.08c0.55-1.93,1.51-3.53,2.77-4.96 c-9.16-1.89-18.79,0.13-26.4,5.63c-0.92-0.5-1.89-1.01-2.86-1.47c0.04-4.16,0.21-8.28,0.38-12.4c1.47-0.17,2.69-1.56,3.03-3.15 c0.42-2.02,1.26-6.14-1.01-7.4H101c0.13-3.24,0.21-6.47-0.04-9.67c-0.21-2.86-2.02-3.15-3.83-4.96c-3.24-3.15-5.34-8.11-10.43-6.52 c-5.04-1.6-7.19,3.36-10.43,6.52c-1.85,1.81-3.62,2.1-3.83,4.96c-0.25,3.2-0.13,6.47-0.04,9.67h-0.04c-2.23,1.26-1.43,5.34-1.01,7.4 c0.34,1.6,1.51,2.98,3.03,3.15c0.21,4.12,0.38,8.28,0.38,12.4c-0.97,0.46-1.93,0.97-2.86,1.47c-7.61-5.47-17.24-7.53-26.4-5.63 c1.26,1.43,2.23,3.07,2.77,4.96c0.04,0.08-0.08,0.17-0.17,0.08c-1.68-2.1-3.45-4.04-5.55-5.76c-0.59-0.46-1.01-1.09-1.51-1.68 c-0.38-0.46-0.84-0.88-1.39-1.14c-0.34-0.13-0.67-0.29-1.05-0.42c-0.46-0.21-0.92-0.38-1.39-0.59c-3.7-1.22-7.32,0-11.01,0.08 c-0.63,0.34-1.3,0.59-2.06,0.59c-1.98,0.04-3.95-0.04-5.89-0.17c-0.04,0-0.04-0.04,0-0.08c1.51-0.25,3.03-0.46,4.54-0.63 c2.35-0.21,3.95-1.18,5.68-2.77c0.8-1.22,1.43-2.52,1.89-4.08c0.88-3.15,1.22-6.22,2.69-9.21c1.14-2.27,2.77-4.25,4.62-5.97 c2.35,3.11,6.01,5.21,9.8,6.01c0.08,0.8,0.42,1.6,1.3,1.85c1.43,0.38,2.86-1.26,3.74-2.1c1.35-1.22,2.27-2.65,2.61-4.41 c0.5-2.52-0.76-5-0.13-7.57c0.13-0.42-0.21-0.76-0.63-0.8c-0.63-0.08-1.22-0.13-1.85-0.21c-0.42-1.56-2.02-2.44-3.62-2.1 c-4.12-2.14-9.8-4.83-14.04-2.44c-1.93,1.09-3.24,3.24-4.67,4.83c-1.77,1.98-3.95,3.53-6.14,4.96c-3.91,2.56-8.07,4.75-11.65,7.78 c-1.6,1.39-2.98,2.98-4.12,4.75c-1.51,2.35-2.23,5.13-3.57,7.57c-1.14,2.14-3.41,3.32-4.46,5.47c-0.97,1.98,0.92,3.7,2.23,4.88 c5,4.58,10.01,9.21,15.01,13.83c3.87,3.57,7.86,7.78,13.28,8.62c1.89,0.29,3.78-0.08,5.63-0.46c1.6,0.5,3.24,0.97,4.88,1.35 c2.23,11.6,8.32,22.45,16.44,31.11c-0.04-1.05-0.04-2.06,0.13-3.15c0.8-4.83,2.02-9.88,5.84-13.28c0.08-0.08,0.25,0.04,0.21,0.17 c-1.72,2.69-3.07,5.3-3.7,8.45c-0.55,2.9-1.3,6.1-0.88,9.08c0.08,0.55,0.13,1.14,0.17,1.68c1.09,3.95,1.68,8.07,1.68,12.32 c-0.04,4.12-1.01,7.99-1.77,11.98c-0.63,3.36,1.64,4.88,4.33,6.26c6.81,3.53,14.88,3.74,22.41,3.45c0.17,0,0.29,0,0.46-0.04 c0,0,0,0,0.04,0c0,0,0,0,0.04,0c0.17,0,0.29,0,0.46,0.04c7.48,0.29,15.6,0.08,22.41-3.45c2.69-1.39,5-2.86,4.33-6.26 c-0.76-4.04-1.77-7.86-1.77-11.98c-0.04-4.25,0.59-8.37,1.68-12.32c0.04-0.55,0.08-1.14,0.17-1.68c0.42-2.98-0.34-6.18-0.88-9.08 c-0.63-3.15-1.98-5.76-3.7-8.45c-0.08-0.13,0.08-0.25,0.21-0.17c3.83,3.41,5.04,8.45,5.84,13.28c0.17,1.09,0.17,2.14,0.13,3.15 c8.11-8.66,14.21-19.51,16.44-31.11c1.64-0.38,3.28-0.8,4.88-1.35c1.85,0.38,3.74,0.76,5.63,0.46c5.47-0.84,9.42-5.04,13.28-8.62 c5-4.62,10.01-9.25,15.01-13.83C172.21,40.75,174.1,39.07,173.14,37.05z M40.46,58.45c-0.13,0.34-0.25,0.67-0.42,0.97 c-0.17,0.38-0.38,0.76-0.63,1.14c-0.04,0.04-0.04,0.08-0.08,0.08c-0.55,0.8-1.22,1.51-1.98,2.14c0,0-0.04,0-0.04-0.04 c0.88-1.39,1.81-2.82,2.4-4.37c1.3-4.5-0.63-10.09-4.92-12.19c-4.5-2.23-8.79-2.14-13.58-1.18c-0.08,0-0.13-0.08-0.04-0.13 c4.71-2.14,11.69-1.56,16.02,1.26C41.17,48.78,42.05,54.16,40.46,58.45z M75.9,37.89c1.64,2.02,4.46,3.62,7.19,4.12 c-1.39-1.14-2.1-2.48-2.61-4.29c-0.04-0.13,0.13-0.21,0.21-0.08c0.88,1.6,1.85,3.32,3.74,3.95c0.8,0.25,1.56,0.34,2.27,0.34 c0.76,0,1.47-0.08,2.27-0.34c1.85-0.63,2.82-2.31,3.74-3.95c0.08-0.13,0.25-0.04,0.21,0.08c-0.46,1.81-1.22,3.15-2.61,4.29 c2.73-0.5,5.55-2.1,7.19-4.12c0.08-0.08,0.21,0.04,0.17,0.13c-1.3,3.11-5.17,4.58-8.45,4.75c-0.76,0.42-1.64,0.67-2.52,0.76 c-0.88-0.04-1.77-0.34-2.52-0.76c-3.28-0.17-7.15-1.64-8.45-4.75C75.69,37.94,75.81,37.81,75.9,37.89z M73.79,46.39 c2.27-0.67,4.58,0.04,6.56,1.22c2.27,1.35,3.99,2.86,6.39,3.07c2.35-0.21,4.12-1.72,6.39-3.07c1.98-1.18,4.29-1.89,6.56-1.22 c0.04,0,0.04,0.08,0,0.13c-3.62,0.25-6.1,2.23-8.95,4.25c-1.22,0.88-2.56,1.39-3.99,1.51c-1.43-0.08-2.77-0.63-3.99-1.51 c-2.82-2.02-5.34-3.99-8.95-4.25C73.75,46.47,73.71,46.39,73.79,46.39z M58.45,84.52c-2.23-0.25-2.4-3.41-1.98-5.13 c0.84-3.15,2.98-6.47,4.96-9.04h0.04c-0.46,2.44-2.4,4.33-3.2,6.64c-0.76,2.14-1.47,5.21,0.38,6.98 C58.83,84.18,58.74,84.52,58.45,84.52z M63.2,79.93c-0.17,0.13-0.38-0.13-0.25-0.25c0.55-0.84,0.97-2.23-0.38-2.56 c-0.84-0.25-1.72-0.13-2.61-0.29c-0.04,0-0.04-0.08,0-0.08c1.09-0.42,3.11-0.63,3.87,0.5C64.46,78.17,64.08,79.35,63.2,79.93z M73.25,89.23c0.04-0.17,0.29-0.13,0.29,0.04c-0.04,2.06-0.46,4.16-0.42,6.22c0.04,2.31,3.62,3.91,5.55,4.37 c0.17,0.04,0.13,0.29-0.04,0.29c-1.89,0.08-5.17-0.59-6.05-2.61C71.52,95.15,72.7,91.66,73.25,89.23z M82.24,124.16 c-2.06,1.18-4.71-0.71-6.05-2.23c-1.72-1.93-2.27-4.83-2.27-7.32c0-0.13,0.17-0.13,0.21-0.04c0.55,2.31,1.14,4.83,2.86,6.6 c0.88,0.88,1.89,1.72,3.11,2.1c0.76,0.21,1.47,0.29,2.19,0.63C82.37,123.91,82.33,124.08,82.24,124.16z M82.67,110.88 c-2.73-0.76-6.52,2.86-8.83-0.17c-0.76-1.01-1.14-2.02-1.05-3.28c0.21-2.23,0.55-4.33,0.21-6.56c-0.04-0.21,0.25-0.29,0.34-0.08 c0.38,1.56,0.71,3.11,0.63,4.71c-0.04,1.72-0.38,4.58,1.93,5.09c2.35,0.5,4.58-1.26,6.89-0.04 C82.96,110.67,82.83,110.96,82.67,110.88z M97.3,121.89c-1.35,1.51-3.99,3.41-6.05,2.23c-0.13-0.04-0.13-0.25,0-0.29 c0.71-0.29,1.47-0.42,2.19-0.63c1.22-0.34,2.23-1.18,3.11-2.1c1.72-1.77,2.31-4.29,2.86-6.6c0.04-0.13,0.21-0.08,0.21,0.04 C99.57,117.1,99.02,119.96,97.3,121.89z M99.65,110.75c-2.31,2.98-6.1-0.59-8.83,0.17c-0.21,0.04-0.34-0.21-0.13-0.34 c2.27-1.22,4.54,0.55,6.89,0.04c2.31-0.5,1.98-3.36,1.93-5.09c-0.04-1.6,0.25-3.15,0.63-4.71c0.04-0.21,0.34-0.13,0.34,0.08 c-0.34,2.23,0,4.33,0.21,6.56C100.78,108.73,100.41,109.74,99.65,110.75z M100.91,97.59c-0.84,2.02-4.16,2.69-6.05,2.61 c-0.17,0-0.21-0.25-0.04-0.29c1.93-0.46,5.51-2.06,5.55-4.37c0.04-2.06-0.38-4.16-0.42-6.22c0-0.17,0.25-0.21,0.29-0.04 C100.78,91.66,101.96,95.15,100.91,97.59z M104.78,84.85c-2.61,0.63-4.96-0.29-7.23-1.51c-1.56-0.84-3.07-1.64-4.79-2.06 c-1.85-0.46-4.04-0.21-6.01,0c-1.98-0.21-4.16-0.46-6.01,0c-1.72,0.46-3.24,1.26-4.79,2.06c-2.27,1.22-4.62,2.14-7.23,1.51 c-0.08-0.04-0.04-0.17,0.04-0.13c4.12,0.59,6.77-2.69,10.26-4.2c2.52-1.09,5.13-0.8,7.78-0.71c2.65-0.08,5.26-0.38,7.78,0.71 c3.45,1.51,6.14,4.79,10.26,4.2C104.82,84.68,104.9,84.81,104.78,84.85z M113.57,76.82c-0.88,0.17-1.77,0.04-2.61,0.29 c-1.35,0.38-0.92,1.72-0.38,2.56c0.08,0.17-0.08,0.38-0.25,0.25c-0.88-0.63-1.26-1.81-0.63-2.73c0.76-1.14,2.82-0.92,3.87-0.5 C113.57,76.74,113.61,76.82,113.57,76.82z M114.99,84.52c-0.25,0.04-0.38-0.34-0.21-0.5c1.85-1.81,1.14-4.88,0.38-6.98 c-0.84-2.31-2.77-4.2-3.2-6.64c0,0,0-0.04,0.04,0c1.98,2.56,4.12,5.84,4.96,9.04C117.43,81.07,117.22,84.26,114.99,84.52z M128.74,56.43c-4.37,2.69-9.54,3.99-14.63,3.7c-0.46,0.71-0.92,1.39-1.43,2.06c-2.98,4.2-6.64,7.57-11.69,9 c-4.37,1.22-9.8,1.05-12.99-2.56c-0.63-0.76-1.05-1.6-1.26-2.52c-0.25,0.92-0.63,1.81-1.26,2.52c-3.15,3.62-8.62,3.78-12.99,2.56 c-5.04-1.39-8.7-4.79-11.69-9c-0.5-0.67-0.97-1.39-1.43-2.06c-5.13,0.29-10.3-1.01-14.63-3.7c-0.08-0.08,0-0.21,0.08-0.17 c4.46,1.98,9,2.82,13.83,2.73c-0.88-1.39-1.77-2.77-2.73-4.12c-1.43-2.06-2.73-3.95-3.7-6.31c-0.04-0.04,0.08-0.08,0.08-0.04 c0.8,1.22,1.39,2.52,2.35,3.66c0.76,0.92,1.56,1.85,2.27,2.82c1.22,1.6,2.31,3.24,3.45,4.92c2.61,3.83,5.76,7.9,10.3,9.54 c4.12,1.51,13.16,2.77,14.76-3.03c1.01-3.66,0.92-7.57,1.26-11.35c0.38,3.78,0.25,7.65,1.26,11.35c1.6,5.8,10.64,4.54,14.76,3.03 c4.54-1.64,7.65-5.72,10.3-9.54c1.14-1.64,2.23-3.32,3.45-4.92c0.76-0.97,1.51-1.89,2.27-2.82c0.97-1.14,1.51-2.44,2.35-3.66 c0.04-0.04,0.13,0,0.08,0.04c-0.92,2.35-2.27,4.25-3.7,6.31c-0.92,1.35-1.81,2.73-2.73,4.12c4.83,0.08,9.38-0.76,13.83-2.73 C128.74,56.22,128.87,56.39,128.74,56.43z M152.24,45c-4.79-0.92-9.12-1.01-13.58,1.18c-4.29,2.1-6.22,7.69-4.92,12.19 c0.59,1.51,1.51,2.94,2.4,4.37c0,0.04,0,0.04-0.04,0.04c-0.76-0.67-1.43-1.39-1.98-2.14c-0.04,0-0.08-0.04-0.08-0.08 c-0.21-0.38-0.42-0.71-0.63-1.14c-0.17-0.34-0.29-0.63-0.42-0.97c-1.6-4.29-0.71-9.67,3.32-12.28c4.33-2.82,11.31-3.41,16.02-1.26 C152.37,44.91,152.33,45.04,152.24,45z"></path> </svg>