<svg xmlns="http://www.w3.org/2000/svg" xmlns:xlink="http://www.w3.org/1999/xlink" id="Layer_1" x="0px" y="0px" viewBox="0 0 412.46 316.62" style="enable-background:new 0 0 412.46 316.62;" xml:space="preserve"> <style type="text/css"> .st0{fill:#EF3A4B;} </style> <path class="st0" d="M411.83,87.4c-2.5-5.1-7.9-7.9-10.6-13c-3.1-5.8-4.9-12.4-8.5-18c-2.7-4.2-6-8.1-9.8-11.3 c-8.5-7.2-18.4-12.3-27.7-18.5c-5.2-3.4-10.4-7.2-14.6-11.8c-3.4-3.8-6.5-9-11.1-11.5c-10.1-5.7-23.6,0.8-33.4,5.8 c-3.8-0.8-7.7,1.3-8.6,5c-1.5,0.1-2.9,0.3-4.4,0.5c-1,0.1-1.7,0.9-1.5,1.9c1.5,6-1.5,12-0.3,18c0.8,4.2,3.1,7.6,6.2,10.5 c2.2,2,5.5,5.9,8.9,5c2.2-0.6,2.9-2.4,3.1-4.4c9-1.9,17.7-6.9,23.3-14.3c4.4,4.1,8.3,8.8,11,14.2c3.5,7,4.3,14.4,6.4,21.9 c1,3.6,2.6,6.8,4.5,9.7c4.1,3.8,7.9,6,13.5,6.6c3.6,0.4,7.3,0.8,10.8,1.5c0.1,0,0.1,0.2,0,0.2c-4.7,0.4-9.4,0.5-14,0.4 c-1.8,0-3.4-0.6-4.9-1.4c-8.8-0.1-17.4-3.1-26.2-0.2c-1.1,0.4-2.2,0.9-3.3,1.4c-0.8,0.3-1.6,0.7-2.5,1c-1.4,0.6-2.4,1.6-3.3,2.7 c-1.2,1.4-2.2,2.9-3.6,4c-4.9,4-9.2,8.7-13.2,13.7c-0.1,0.2-0.4,0-0.4-0.2c1.3-4.6,3.6-8.4,6.6-11.8c-21.8-4.5-44.7,0.3-62.8,13.4 c-2.2-1.2-4.5-2.4-6.8-3.5c0.1-9.9,0.5-19.7,0.9-29.5c3.5-0.4,6.4-3.7,7.2-7.5c1-4.8,3-14.6-2.4-17.6h-0.1c0.3-7.7,0.5-15.4-0.1-23 c-0.5-6.8-4.8-7.5-9.1-11.8c-7.7-7.5-12.7-19.3-24.8-15.5c-12-3.8-17.1,8-24.8,15.5c-4.4,4.3-8.6,5-9.1,11.8 c-0.6,7.6-0.3,15.4-0.1,23h-0.1c-5.3,3-3.4,12.7-2.4,17.6c0.8,3.8,3.6,7.1,7.2,7.5c0.5,9.8,0.9,19.7,0.9,29.5 c-2.3,1.1-4.6,2.3-6.8,3.5c-18.1-13-41-17.9-62.8-13.4c3,3.4,5.3,7.3,6.6,11.8c0.1,0.2-0.2,0.4-0.4,0.2c-4-5-8.2-9.6-13.2-13.7 c-1.4-1.1-2.4-2.6-3.6-4c-0.9-1.1-2-2.1-3.3-2.7c-0.8-0.3-1.6-0.7-2.5-1c-1.1-0.5-2.2-0.9-3.3-1.4c-8.8-2.9-17.4,0-26.2,0.2 c-1.5,0.8-3.1,1.4-4.9,1.4c-4.7,0.1-9.4-0.1-14-0.4c-0.1,0-0.1-0.1,0-0.2c3.6-0.6,7.2-1.1,10.8-1.5c5.6-0.5,9.4-2.8,13.5-6.6 c1.9-2.9,3.4-6,4.5-9.7c2.1-7.5,2.9-14.8,6.4-21.9c2.7-5.4,6.6-10.1,11-14.2c5.6,7.4,14.3,12.4,23.3,14.3c0.2,1.9,1,3.8,3.1,4.4 c3.4,0.9,6.8-3,8.9-5c3.2-2.9,5.4-6.3,6.2-10.5c1.2-6-1.8-11.9-0.3-18c0.3-1-0.5-1.8-1.5-1.9c-1.5-0.2-2.9-0.3-4.4-0.5 c-1-3.7-4.8-5.8-8.6-5c-9.8-5.1-23.3-11.5-33.4-5.8c-4.6,2.6-7.7,7.7-11.1,11.5c-4.2,4.7-9.4,8.4-14.6,11.8 c-9.3,6.1-19.2,11.3-27.7,18.5c-3.8,3.3-7.1,7.1-9.8,11.3c-3.6,5.6-5.3,12.2-8.5,18c-2.7,5.1-8.1,7.9-10.6,13 c-2.3,4.7,2.2,8.8,5.3,11.6c11.9,10.9,23.8,21.9,35.7,32.9c9.2,8.5,18.7,18.5,31.6,20.5c4.5,0.7,9-0.2,13.4-1.1 c3.8,1.2,7.7,2.3,11.6,3.2c5.3,27.6,19.8,53.4,39.1,74c-0.1-2.5-0.1-4.9,0.3-7.5c1.9-11.5,4.8-23.5,13.9-31.6 c0.2-0.2,0.6,0.1,0.5,0.4c-4.1,6.4-7.3,12.6-8.8,20.1c-1.3,6.9-3.1,14.5-2.1,21.6c0.2,1.3,0.3,2.7,0.4,4c2.6,9.4,4,19.2,4,29.3 c-0.1,9.8-2.4,19-4.2,28.5c-1.5,8,3.9,11.6,10.3,14.9c16.2,8.4,35.4,8.9,53.3,8.2c0.4,0,0.7,0,1.1-0.1c0,0,0,0,0.1,0c0,0,0,0,0.1,0 c0.4,0,0.7,0,1.1,0.1c17.8,0.7,37.1,0.2,53.3-8.2c6.4-3.3,11.9-6.8,10.3-14.9c-1.8-9.6-4.2-18.7-4.2-28.5c-0.1-10.1,1.4-19.9,4-29.3 c0.1-1.3,0.2-2.7,0.4-4c1-7.1-0.8-14.7-2.1-21.6c-1.5-7.5-4.7-13.7-8.8-20.1c-0.2-0.3,0.2-0.6,0.5-0.4c9.1,8.1,12,20.1,13.9,31.6 c0.4,2.6,0.4,5.1,0.3,7.5c19.3-20.6,33.8-46.4,39.1-74c3.9-0.9,7.8-1.9,11.6-3.2c4.4,0.9,8.9,1.8,13.4,1.1c13-2,22.4-12,31.6-20.5 c11.9-11,23.8-22,35.7-32.9C409.63,96.2,414.13,92.2,411.83,87.4z M96.23,138.3c-0.3,0.8-0.6,1.6-1,2.3c-0.4,0.9-0.9,1.8-1.5,2.7 c-0.1,0.1-0.1,0.2-0.2,0.2c-1.3,1.9-2.9,3.6-4.7,5.1c0,0-0.1,0-0.1-0.1c2.1-3.3,4.3-6.7,5.7-10.4c3.1-10.7-1.5-24-11.7-29 c-10.7-5.3-20.9-5.1-32.3-2.8c-0.2,0-0.3-0.2-0.1-0.3c11.2-5.1,27.8-3.7,38.1,3C97.93,115.3,100.03,128.1,96.23,138.3z M180.53,89.4 c3.9,4.8,10.6,8.6,17.1,9.8c-3.3-2.7-5-5.9-6.2-10.2c-0.1-0.3,0.3-0.5,0.5-0.2c2.1,3.8,4.4,7.9,8.9,9.4c1.9,0.6,3.7,0.8,5.4,0.8 c1.8,0,3.5-0.2,5.4-0.8c4.4-1.5,6.7-5.5,8.9-9.4c0.2-0.3,0.6-0.1,0.5,0.2c-1.1,4.3-2.9,7.5-6.2,10.2c6.5-1.2,13.2-5,17.1-9.8 c0.2-0.2,0.5,0.1,0.4,0.3c-3.1,7.4-12.3,10.9-20.1,11.3c-1.8,1-3.9,1.6-6,1.8c-2.1-0.1-4.2-0.8-6-1.8c-7.8-0.4-17-3.9-20.1-11.3 C180.03,89.5,180.33,89.2,180.53,89.4z M175.53,109.6c5.4-1.6,10.9,0.1,15.6,2.9c5.4,3.2,9.5,6.8,15.2,7.3c5.6-0.5,9.8-4.1,15.2-7.3 c4.7-2.8,10.2-4.5,15.6-2.9c0.1,0,0.1,0.2,0,0.3c-8.6,0.6-14.5,5.3-21.3,10.1c-2.9,2.1-6.1,3.3-9.5,3.6c-3.4-0.2-6.6-1.5-9.5-3.6 c-6.7-4.8-12.7-9.5-21.3-10.1C175.43,109.8,175.33,109.6,175.53,109.6z M139.03,200.3c-5.3-0.6-5.7-8.1-4.7-12.2 c2-7.5,7.1-15.4,11.8-21.5h0.1c-1.1,5.8-5.7,10.3-7.6,15.8c-1.8,5.1-3.5,12.4,0.9,16.6C139.93,199.5,139.73,200.3,139.03,200.3z M150.33,189.4c-0.4,0.3-0.9-0.3-0.6-0.6c1.3-2,2.3-5.3-0.9-6.1c-2-0.6-4.1-0.3-6.2-0.7c-0.1,0-0.1-0.2,0-0.2c2.6-1,7.4-1.5,9.2,1.2 C153.33,185.2,152.43,188,150.33,189.4z M174.23,211.5c0.1-0.4,0.7-0.3,0.7,0.1c-0.1,4.9-1.1,9.9-1,14.8c0.1,5.5,8.6,9.3,13.2,10.4 c0.4,0.1,0.3,0.7-0.1,0.7c-4.5,0.2-12.3-1.4-14.4-6.2C170.13,225.6,172.93,217.3,174.23,211.5z M195.63,294.6 c-4.9,2.8-11.2-1.7-14.4-5.3c-4.1-4.6-5.4-11.5-5.4-17.4c0-0.3,0.4-0.3,0.5-0.1c1.3,5.5,2.7,11.5,6.8,15.7c2.1,2.1,4.5,4.1,7.4,5 c1.8,0.5,3.5,0.7,5.2,1.5C195.93,294,195.83,294.4,195.63,294.6z M196.63,263c-6.5-1.8-15.5,6.8-21-0.4c-1.8-2.4-2.7-4.8-2.5-7.8 c0.5-5.3,1.3-10.3,0.5-15.6c-0.1-0.5,0.6-0.7,0.8-0.2c0.9,3.7,1.7,7.4,1.5,11.2c-0.1,4.1-0.9,10.9,4.6,12.1c5.6,1.2,10.9-3,16.4-0.1 C197.33,262.5,197.03,263.2,196.63,263z M231.43,289.2c-3.2,3.6-9.5,8.1-14.4,5.3c-0.3-0.1-0.3-0.6,0-0.7c1.7-0.7,3.5-1,5.2-1.5 c2.9-0.8,5.3-2.8,7.4-5c4.1-4.2,5.5-10.2,6.8-15.7c0.1-0.3,0.5-0.2,0.5,0.1C236.83,277.8,235.53,284.6,231.43,289.2z M237.03,262.7 c-5.5,7.1-14.5-1.4-21,0.4c-0.5,0.1-0.8-0.5-0.3-0.8c5.4-2.9,10.8,1.3,16.4,0.1c5.5-1.2,4.7-8,4.6-12.1c-0.1-3.8,0.6-7.5,1.5-11.2 c0.1-0.5,0.8-0.3,0.8,0.2c-0.8,5.3,0,10.3,0.5,15.6C239.73,257.9,238.83,260.3,237.03,262.7z M240.03,231.4c-2,4.8-9.9,6.4-14.4,6.2 c-0.4,0-0.5-0.6-0.1-0.7c4.6-1.1,13.1-4.9,13.2-10.4c0.1-4.9-0.9-9.9-1-14.8c0-0.4,0.6-0.5,0.7-0.1 C239.73,217.3,242.53,225.6,240.03,231.4z M249.23,201.1c-6.2,1.5-11.8-0.7-17.2-3.6c-3.7-2-7.3-3.9-11.4-4.9 c-4.4-1.1-9.6-0.5-14.3,0c-4.7-0.5-9.9-1.1-14.3,0c-4.1,1.1-7.7,3-11.4,4.9c-5.4,2.9-11,5.1-17.2,3.6c-0.2-0.1-0.1-0.4,0.1-0.3 c9.8,1.4,16.1-6.4,24.4-10c6-2.6,12.2-1.9,18.5-1.7c6.3-0.2,12.5-0.9,18.5,1.7c8.2,3.6,14.6,11.4,24.4,10 C249.33,200.7,249.53,201,249.23,201.1z M270.13,182c-2.1,0.4-4.2,0.1-6.2,0.7c-3.2,0.9-2.2,4.1-0.9,6.1c0.2,0.4-0.2,0.9-0.6,0.6 c-2.1-1.5-3-4.3-1.5-6.5c1.8-2.7,6.7-2.2,9.2-1.2C270.13,181.8,270.23,182,270.13,182z M273.53,200.3c-0.6,0.1-0.9-0.8-0.5-1.2 c4.4-4.3,2.7-11.6,0.9-16.6c-2-5.5-6.6-10-7.6-15.8c0,0,0-0.1,0.1,0c4.7,6.1,9.8,13.9,11.8,21.5 C279.33,192.1,278.83,199.7,273.53,200.3z M306.23,133.5c-10.4,6.4-22.7,9.5-34.8,8.8c-1.1,1.7-2.2,3.3-3.4,4.9 c-7.1,10-15.8,18-27.8,21.4c-10.4,2.9-23.3,2.5-30.9-6.1c-1.5-1.8-2.5-3.8-3-6c-0.6,2.2-1.5,4.3-3,6c-7.5,8.6-20.5,9-30.9,6.1 c-12-3.3-20.7-11.4-27.8-21.4c-1.2-1.6-2.3-3.3-3.4-4.9c-12.2,0.7-24.5-2.4-34.8-8.8c-0.2-0.2,0-0.5,0.2-0.4 c10.6,4.7,21.4,6.7,32.9,6.5c-2.1-3.3-4.2-6.6-6.5-9.8c-3.4-4.9-6.5-9.4-8.8-15c-0.1-0.1,0.2-0.2,0.2-0.1c1.9,2.9,3.3,6,5.6,8.7 c1.8,2.2,3.7,4.4,5.4,6.7c2.9,3.8,5.5,7.7,8.2,11.7c6.2,9.1,13.7,18.8,24.5,22.7c9.8,3.6,31.3,6.6,35.1-7.2c2.4-8.7,2.2-18,3-27 c0.9,9,0.6,18.2,3,27c3.8,13.8,25.3,10.8,35.1,7.2c10.8-3.9,18.2-13.6,24.5-22.7c2.7-3.9,5.3-7.9,8.2-11.7c1.8-2.3,3.6-4.5,5.4-6.7 c2.3-2.7,3.6-5.8,5.6-8.7c0.1-0.1,0.3,0,0.2,0.1c-2.2,5.6-5.4,10.1-8.8,15c-2.2,3.2-4.3,6.5-6.5,9.8c11.5,0.2,22.3-1.8,32.9-6.5 C306.23,133,306.53,133.4,306.23,133.5z M362.13,106.3c-11.4-2.2-21.7-2.4-32.3,2.8c-10.2,5-14.8,18.3-11.7,29 c1.4,3.6,3.6,7,5.7,10.4c0,0.1,0,0.1-0.1,0.1c-1.8-1.6-3.4-3.3-4.7-5.1c-0.1,0-0.2-0.1-0.2-0.2c-0.5-0.9-1-1.7-1.5-2.7 c-0.4-0.8-0.7-1.5-1-2.3c-3.8-10.2-1.7-23,7.9-29.2c10.3-6.7,26.9-8.1,38.1-3C362.43,106.1,362.33,106.4,362.13,106.3z"></path> </svg>