<svg xmlns="http://www.w3.org/2000/svg" xmlns:xlink="http://www.w3.org/1999/xlink" id="Layer_1" x="0px" y="0px" viewBox="0 0 50.98 39.22" style="enable-background:new 0 0 50.98 39.22;" xml:space="preserve"> <style type="text/css"> .st0{fill:#EF3A4B;} </style> <path class="st0" d="M50.9,10.89c-0.31-0.63-0.98-0.98-1.31-1.61c-0.38-0.72-0.61-1.53-1.05-2.22c-0.33-0.52-0.74-1-1.21-1.4 c-1.05-0.89-2.27-1.52-3.42-2.29c-0.64-0.42-1.29-0.89-1.8-1.46c-0.42-0.47-0.8-1.11-1.37-1.42c-1.25-0.7-2.92,0.1-4.13,0.72 c-0.47-0.1-0.95,0.16-1.06,0.62c-0.19,0.01-0.36,0.04-0.54,0.06c-0.12,0.01-0.21,0.11-0.19,0.23c0.19,0.74-0.19,1.48-0.04,2.22 c0.1,0.52,0.38,0.94,0.77,1.3c0.27,0.25,0.68,0.73,1.1,0.62c0.27-0.07,0.36-0.3,0.38-0.54c1.11-0.23,2.19-0.85,2.88-1.77 c0.54,0.51,1.03,1.09,1.36,1.76c0.43,0.87,0.53,1.78,0.79,2.71c0.12,0.44,0.32,0.84,0.56,1.2c0.51,0.47,0.98,0.74,1.67,0.82 c0.44,0.05,0.9,0.1,1.33,0.19c0.01,0,0.01,0.02,0,0.02c-0.58,0.05-1.16,0.06-1.73,0.05c-0.22,0-0.42-0.07-0.61-0.17 c-1.09-0.01-2.15-0.38-3.24-0.02c-0.14,0.05-0.27,0.11-0.41,0.17c-0.1,0.04-0.2,0.09-0.31,0.12c-0.17,0.07-0.3,0.2-0.41,0.33 c-0.15,0.17-0.27,0.36-0.44,0.49c-0.61,0.49-1.14,1.08-1.63,1.69c-0.01,0.02-0.05,0-0.05-0.02c0.16-0.57,0.44-1.04,0.82-1.46 c-2.69-0.56-5.52,0.04-7.76,1.66c-0.27-0.15-0.56-0.3-0.84-0.43c0.01-1.22,0.06-2.43,0.11-3.65C29.54,9.36,29.9,8.95,30,8.48 c0.12-0.59,0.37-1.8-0.3-2.18h-0.01c0.04-0.95,0.06-1.9-0.01-2.84c-0.06-0.84-0.59-0.93-1.12-1.46c-0.95-0.93-1.57-2.39-3.07-1.92 c-1.48-0.47-2.11,0.99-3.07,1.92c-0.54,0.53-1.06,0.62-1.12,1.46c-0.07,0.94-0.04,1.9-0.01,2.84h-0.01 c-0.66,0.37-0.42,1.57-0.3,2.18c0.1,0.47,0.44,0.88,0.89,0.93c0.06,1.21,0.11,2.43,0.11,3.65c-0.28,0.14-0.57,0.28-0.84,0.43 c-2.24-1.61-5.07-2.21-7.76-1.66c0.37,0.42,0.66,0.9,0.82,1.46c0.01,0.02-0.02,0.05-0.05,0.02c-0.49-0.62-1.01-1.19-1.63-1.69 c-0.17-0.14-0.3-0.32-0.44-0.49c-0.11-0.14-0.25-0.26-0.41-0.33c-0.1-0.04-0.2-0.09-0.31-0.12c-0.14-0.06-0.27-0.11-0.41-0.17 c-1.09-0.36-2.15,0-3.24,0.02c-0.19,0.1-0.38,0.17-0.61,0.17c-0.58,0.01-1.16-0.01-1.73-0.05c-0.01,0-0.01-0.01,0-0.02 c0.44-0.07,0.89-0.14,1.33-0.19c0.69-0.06,1.16-0.35,1.67-0.82c0.23-0.36,0.42-0.74,0.56-1.2c0.26-0.93,0.36-1.83,0.79-2.71 c0.33-0.67,0.82-1.25,1.36-1.76c0.69,0.91,1.77,1.53,2.88,1.77c0.02,0.23,0.12,0.47,0.38,0.54c0.42,0.11,0.84-0.37,1.1-0.62 c0.4-0.36,0.67-0.78,0.77-1.3c0.15-0.74-0.22-1.47-0.04-2.22c0.04-0.12-0.06-0.22-0.19-0.23c-0.19-0.02-0.36-0.04-0.54-0.06 c-0.12-0.46-0.59-0.72-1.06-0.62c-1.21-0.63-2.88-1.42-4.13-0.72C9.68,0.82,9.3,1.45,8.88,1.92C8.36,2.5,7.72,2.96,7.07,3.38 C5.92,4.13,4.7,4.78,3.65,5.67c-0.47,0.41-0.88,0.88-1.21,1.4C1.99,7.75,1.78,8.57,1.39,9.29c-0.33,0.63-1,0.98-1.31,1.61 c-0.28,0.58,0.27,1.09,0.66,1.43c1.47,1.35,2.94,2.71,4.41,4.07c1.14,1.05,2.31,2.29,3.91,2.53c0.56,0.09,1.11-0.02,1.66-0.14 c0.47,0.15,0.95,0.28,1.43,0.4c0.66,3.41,2.45,6.6,4.83,9.15c-0.01-0.31-0.01-0.61,0.04-0.93c0.23-1.42,0.59-2.9,1.72-3.91 c0.02-0.02,0.07,0.01,0.06,0.05c-0.51,0.79-0.9,1.56-1.09,2.48c-0.16,0.85-0.38,1.79-0.26,2.67c0.02,0.16,0.04,0.33,0.05,0.49 c0.32,1.16,0.49,2.37,0.49,3.62c-0.01,1.21-0.3,2.35-0.52,3.52c-0.19,0.99,0.48,1.43,1.27,1.84c2,1.04,4.38,1.1,6.59,1.01 c0.05,0,0.09,0,0.14-0.01c0,0,0,0,0.01,0c0,0,0,0,0.01,0c0.05,0,0.09,0,0.14,0.01c2.2,0.09,4.59,0.02,6.59-1.01 c0.79-0.41,1.47-0.84,1.27-1.84c-0.22-1.19-0.52-2.31-0.52-3.52c-0.01-1.25,0.17-2.46,0.49-3.62c0.01-0.16,0.02-0.33,0.05-0.49 c0.12-0.88-0.1-1.82-0.26-2.67c-0.19-0.93-0.58-1.69-1.09-2.48c-0.02-0.04,0.02-0.07,0.06-0.05c1.12,1,1.48,2.48,1.72,3.91 c0.05,0.32,0.05,0.63,0.04,0.93c2.39-2.55,4.18-5.73,4.83-9.15c0.48-0.11,0.96-0.23,1.43-0.4c0.54,0.11,1.1,0.22,1.66,0.14 c1.61-0.25,2.77-1.48,3.91-2.53c1.47-1.36,2.94-2.72,4.41-4.07C50.63,11.98,51.18,11.49,50.9,10.89z M11.89,17.18 c-0.04,0.1-0.07,0.2-0.12,0.28c-0.05,0.11-0.11,0.22-0.19,0.33c-0.01,0.01-0.01,0.02-0.02,0.02c-0.16,0.23-0.36,0.44-0.58,0.63 c0,0-0.01,0-0.01-0.01c0.26-0.41,0.53-0.83,0.7-1.29c0.38-1.32-0.19-2.97-1.45-3.58c-1.32-0.66-2.58-0.63-3.99-0.35 c-0.02,0-0.04-0.02-0.01-0.04c1.38-0.63,3.44-0.46,4.71,0.37C12.1,14.34,12.36,15.92,11.89,17.18z M22.31,11.14 c0.48,0.59,1.31,1.06,2.11,1.21c-0.41-0.33-0.62-0.73-0.77-1.26c-0.01-0.04,0.04-0.06,0.06-0.02c0.26,0.47,0.54,0.98,1.1,1.16 c0.23,0.07,0.46,0.1,0.67,0.1c0.22,0,0.43-0.02,0.67-0.1c0.54-0.19,0.83-0.68,1.1-1.16c0.02-0.04,0.07-0.01,0.06,0.02 c-0.14,0.53-0.36,0.93-0.77,1.26c0.8-0.15,1.63-0.62,2.11-1.21c0.02-0.02,0.06,0.01,0.05,0.04c-0.38,0.91-1.52,1.35-2.48,1.4 c-0.22,0.12-0.48,0.2-0.74,0.22c-0.26-0.01-0.52-0.1-0.74-0.22c-0.96-0.05-2.1-0.48-2.48-1.4C22.25,11.15,22.29,11.12,22.31,11.14z M21.69,13.64c0.67-0.2,1.35,0.01,1.93,0.36c0.67,0.4,1.17,0.84,1.88,0.9c0.69-0.06,1.21-0.51,1.88-0.9 c0.58-0.35,1.26-0.56,1.93-0.36c0.01,0,0.01,0.02,0,0.04c-1.06,0.07-1.79,0.66-2.63,1.25c-0.36,0.26-0.75,0.41-1.17,0.44 c-0.42-0.02-0.82-0.19-1.17-0.44c-0.83-0.59-1.57-1.17-2.63-1.25C21.68,13.66,21.67,13.64,21.69,13.64z M17.18,24.85 c-0.66-0.07-0.7-1-0.58-1.51c0.25-0.93,0.88-1.9,1.46-2.66h0.01c-0.14,0.72-0.7,1.27-0.94,1.95c-0.22,0.63-0.43,1.53,0.11,2.05 C17.29,24.75,17.27,24.85,17.18,24.85z M18.58,23.5c-0.05,0.04-0.11-0.04-0.07-0.07c0.16-0.25,0.28-0.66-0.11-0.75 c-0.25-0.07-0.51-0.04-0.77-0.09c-0.01,0-0.01-0.02,0-0.02c0.32-0.12,0.91-0.19,1.14,0.15C18.95,22.98,18.84,23.33,18.58,23.5z M21.53,26.23c0.01-0.05,0.09-0.04,0.09,0.01c-0.01,0.61-0.14,1.22-0.12,1.83c0.01,0.68,1.06,1.15,1.63,1.29 c0.05,0.01,0.04,0.09-0.01,0.09c-0.56,0.02-1.52-0.17-1.78-0.77C21.03,27.97,21.37,26.95,21.53,26.23z M24.18,36.5 c-0.61,0.35-1.38-0.21-1.78-0.66c-0.51-0.57-0.67-1.42-0.67-2.15c0-0.04,0.05-0.04,0.06-0.01c0.16,0.68,0.33,1.42,0.84,1.94 c0.26,0.26,0.56,0.51,0.91,0.62c0.22,0.06,0.43,0.09,0.64,0.19C24.22,36.43,24.2,36.48,24.18,36.5z M24.3,32.6 c-0.8-0.22-1.92,0.84-2.6-0.05c-0.22-0.3-0.33-0.59-0.31-0.96c0.06-0.66,0.16-1.27,0.06-1.93c-0.01-0.06,0.07-0.09,0.1-0.02 c0.11,0.46,0.21,0.91,0.19,1.38c-0.01,0.51-0.11,1.35,0.57,1.5c0.69,0.15,1.35-0.37,2.03-0.01C24.39,32.53,24.35,32.62,24.3,32.6z M28.6,35.83c-0.4,0.44-1.17,1-1.78,0.66c-0.04-0.01-0.04-0.07,0-0.09c0.21-0.09,0.43-0.12,0.64-0.19c0.36-0.1,0.66-0.35,0.91-0.62 c0.51-0.52,0.68-1.26,0.84-1.94c0.01-0.04,0.06-0.02,0.06,0.01C29.27,34.43,29.11,35.27,28.6,35.83z M29.3,32.56 c-0.68,0.88-1.79-0.17-2.6,0.05c-0.06,0.01-0.1-0.06-0.04-0.1c0.67-0.36,1.33,0.16,2.03,0.01c0.68-0.15,0.58-0.99,0.57-1.5 c-0.01-0.47,0.07-0.93,0.19-1.38c0.01-0.06,0.1-0.04,0.1,0.02c-0.1,0.66,0,1.27,0.06,1.93C29.63,31.97,29.52,32.26,29.3,32.56z M29.67,28.69c-0.25,0.59-1.22,0.79-1.78,0.77c-0.05,0-0.06-0.07-0.01-0.09c0.57-0.14,1.62-0.61,1.63-1.29 c0.01-0.61-0.11-1.22-0.12-1.83c0-0.05,0.07-0.06,0.09-0.01C29.63,26.95,29.98,27.97,29.67,28.69z M30.8,24.95 c-0.77,0.19-1.46-0.09-2.13-0.44c-0.46-0.25-0.9-0.48-1.41-0.61c-0.54-0.14-1.19-0.06-1.77,0c-0.58-0.06-1.22-0.14-1.77,0 c-0.51,0.14-0.95,0.37-1.41,0.61c-0.67,0.36-1.36,0.63-2.13,0.44c-0.02-0.01-0.01-0.05,0.01-0.04c1.21,0.17,1.99-0.79,3.02-1.24 c0.74-0.32,1.51-0.23,2.29-0.21c0.78-0.02,1.54-0.11,2.29,0.21c1.01,0.44,1.8,1.41,3.02,1.24C30.82,24.9,30.84,24.93,30.8,24.95z M33.39,22.59c-0.26,0.05-0.52,0.01-0.77,0.09c-0.4,0.11-0.27,0.51-0.11,0.75c0.02,0.05-0.02,0.11-0.07,0.07 c-0.26-0.19-0.37-0.53-0.19-0.8c0.22-0.33,0.83-0.27,1.14-0.15C33.39,22.56,33.4,22.59,33.39,22.59z M33.81,24.85 c-0.07,0.01-0.11-0.1-0.06-0.15c0.54-0.53,0.33-1.43,0.11-2.05c-0.25-0.68-0.82-1.24-0.94-1.95c0,0,0-0.01,0.01,0 c0.58,0.75,1.21,1.72,1.46,2.66C34.52,23.83,34.46,24.77,33.81,24.85z M37.85,16.59c-1.29,0.79-2.81,1.17-4.3,1.09 c-0.14,0.21-0.27,0.41-0.42,0.61c-0.88,1.24-1.95,2.22-3.44,2.64c-1.29,0.36-2.88,0.31-3.82-0.75c-0.19-0.22-0.31-0.47-0.37-0.74 c-0.07,0.27-0.19,0.53-0.37,0.74c-0.93,1.06-2.53,1.11-3.82,0.75c-1.48-0.41-2.56-1.41-3.44-2.64c-0.15-0.2-0.28-0.41-0.42-0.61 c-1.51,0.09-3.03-0.3-4.3-1.09c-0.02-0.02,0-0.06,0.02-0.05c1.31,0.58,2.64,0.83,4.07,0.8c-0.26-0.41-0.52-0.82-0.8-1.21 c-0.42-0.61-0.8-1.16-1.09-1.85c-0.01-0.01,0.02-0.02,0.02-0.01c0.23,0.36,0.41,0.74,0.69,1.08c0.22,0.27,0.46,0.54,0.67,0.83 c0.36,0.47,0.68,0.95,1.01,1.45c0.77,1.12,1.69,2.32,3.03,2.81c1.21,0.44,3.87,0.82,4.34-0.89c0.3-1.08,0.27-2.22,0.37-3.34 c0.11,1.11,0.07,2.25,0.37,3.34c0.47,1.71,3.13,1.33,4.34,0.89c1.33-0.48,2.25-1.68,3.03-2.81c0.33-0.48,0.66-0.98,1.01-1.45 c0.22-0.28,0.44-0.56,0.67-0.83c0.28-0.33,0.44-0.72,0.69-1.08c0.01-0.01,0.04,0,0.02,0.01c-0.27,0.69-0.67,1.25-1.09,1.85 c-0.27,0.4-0.53,0.8-0.8,1.21c1.42,0.02,2.76-0.22,4.07-0.8C37.85,16.53,37.89,16.58,37.85,16.59z M44.76,13.23 c-1.41-0.27-2.68-0.3-3.99,0.35c-1.26,0.62-1.83,2.26-1.45,3.58c0.17,0.44,0.44,0.87,0.7,1.29c0,0.01,0,0.01-0.01,0.01 c-0.22-0.2-0.42-0.41-0.58-0.63c-0.01,0-0.02-0.01-0.02-0.02c-0.06-0.11-0.12-0.21-0.19-0.33c-0.05-0.1-0.09-0.19-0.12-0.28 c-0.47-1.26-0.21-2.84,0.98-3.61c1.27-0.83,3.32-1,4.71-0.37C44.8,13.2,44.78,13.24,44.76,13.23z"></path> </svg>