<?xml version="1.0" encoding="utf-8"?>
<!-- Generator: Adobe Illustrator 23.0.1, SVG Export Plug-In . SVG Version: 6.00 Build 0)  -->
<svg version="1.1" id="Layer_1" xmlns="http://www.w3.org/2000/svg" xmlns:xlink="http://www.w3.org/1999/xlink" x="0px" y="0px"
	 viewBox="0 0 216.06 292.82" style="enable-background:new 0 0 216.06 292.82;" xml:space="preserve">
<style type="text/css">
	.st0{fill:#EF3C4C;}
</style>
<g>
	<g>
		<g>
			<path class="st0" d="M144.7,292.82c-0.42,0-0.84-0.05-1.26-0.17l-97.84-26.38c-1.37-0.37-2.52-1.33-3.11-2.62
				c-0.6-1.29-0.6-2.78,0-4.07l15.55-33.24c0.99-2.12,3.37-3.22,5.62-2.61l87.65,23.64c2.36,0.64,3.87,2.94,3.51,5.36l-5.36,35.99
				c-0.2,1.36-0.98,2.57-2.13,3.32C146.55,292.55,145.63,292.82,144.7,292.82z M53.66,258.46l87.07,23.48l3.93-26.39l-79.6-21.47
				L53.66,258.46z"/>
		</g>
		<g>
			<path class="st0" d="M150.06,256.83c-0.41,0-0.84-0.05-1.26-0.17l-87.46-23.58c-1.27-0.34-2.33-1.18-2.96-2.33
				c-0.63-1.15-0.77-2.5-0.38-3.75l13.38-43.15c0.77-2.48,3.36-3.9,5.86-3.23l87.46,23.58c1.27,0.34,2.33,1.18,2.97,2.33
				c0.63,1.15,0.77,2.5,0.38,3.75l-13.39,43.14C154.02,255.5,152.12,256.83,150.06,256.83z M68.69,225.09l78.15,21.07l10.52-33.93
				l-78.14-21.07L68.69,225.09z"/>
		</g>
		<g>
			<path class="st0" d="M110.02,233.14c-0.41,0-0.84-0.05-1.26-0.17l-49.79-13.43c-1.26-0.34-2.33-1.18-2.96-2.33
				c-0.63-1.15-0.77-2.5-0.38-3.75l5.5-17.73c0.77-2.48,3.35-3.9,5.86-3.23l49.8,13.43c1.26,0.34,2.33,1.18,2.96,2.33
				c0.63,1.15,0.77,2.5,0.38,3.75l-5.5,17.73C113.99,231.81,112.08,233.14,110.02,233.14z M66.31,211.55l40.48,10.92l2.64-8.52
				l-40.48-10.92L66.31,211.55z"/>
		</g>
		<g>
			<path class="st0" d="M163.44,213.69c-1.16,0-2.32-0.42-3.24-1.26c-1.97-1.79-2.11-4.84-0.32-6.81
				c17.05-18.72,44.39-52.42,45.18-63.15c0.6-8.17-3.18-17.93-9.38-24.27c-3.89-3.98-8.25-6.06-12.26-5.85
				c-5.27,0.27-11.15,5.43-14.98,13.15c-3.48,7.02-3.72,13.21-2.18,15.48c8.16,12.01-2.3,27.46-2.75,28.11
				c-1.52,2.19-4.51,2.74-6.7,1.23c-2.19-1.51-2.74-4.51-1.23-6.7c0.06-0.09,7.09-10.78,2.71-17.22
				c-4.69-6.89-2.29-17.52,1.52-25.18c4.26-8.58,12.57-17.94,23.11-18.49c6.84-0.36,13.79,2.75,19.65,8.73
				c8.15,8.32,12.91,20.77,12.11,31.71c-1.25,17.19-39.92,60.44-47.66,68.94C166.05,213.16,164.75,213.69,163.44,213.69z"/>
		</g>
		<g>
			<path class="st0" d="M75.99,190.11c-0.08,0-0.17,0-0.25-0.01c-2.66-0.14-4.7-2.4-4.56-5.06c0.48-9.34,4.88-91.65,9.85-105.43
				c6.64-18.41,28.02-59.29,83.12-41.33c24.08,7.85,40.04,19.41,47.41,34.35c7.12,14.41,4.24,27.77,1.9,34.45
				c-2.81,8-5.89,14.45-6.02,14.73c-1.15,2.4-4.03,3.41-6.43,2.27c-2.4-1.15-3.42-4.02-2.27-6.42c0.03-0.06,2.99-6.28,5.62-13.76
				c1.84-5.25,4.11-15.74-1.44-26.98c-6.19-12.53-20.24-22.43-41.76-29.45c-45.39-14.78-64.01,15.85-71.07,35.43
				c-3.39,9.42-7.41,66.56-9.29,102.67C80.67,188.11,78.54,190.11,75.99,190.11z"/>
		</g>
		<g>
			<path class="st0" d="M174.91,115.29c-0.25,0-0.51-0.02-0.76-0.06c-0.97-0.15-24-3.91-49.76-15.59
				c-23.2-10.52-24.31-29.48-21.66-38.03c0.79-2.54,3.49-3.96,6.03-3.18c2.53,0.78,3.95,3.47,3.19,6
				c-0.51,1.74-4.27,17.04,16.43,26.42c24.58,11.15,47.06,14.81,47.29,14.85c2.63,0.42,4.42,2.89,4,5.52
				C179.29,113.6,177.24,115.29,174.91,115.29z"/>
		</g>
	</g>
	<g>
		<path class="st0" d="M54.59,249.91H24.46c-1.41,0-2.74-0.61-3.66-1.68c-0.91-1.07-1.32-2.48-1.1-3.87l5.57-35.96
			c0.36-2.35,2.39-4.08,4.76-4.08h32.14c2.66,0,4.82,2.16,4.82,4.82s-2.16,4.82-4.82,4.82H34.16l-4.08,26.32h24.51
			c2.66,0,4.82,2.16,4.82,4.82S57.26,249.91,54.59,249.91z"/>
	</g>
	<g>
		<path class="st0" d="M62.17,213.95H30.03c-2.66,0-4.82-2.16-4.82-4.82v-44.91c0-2.66,2.16-4.82,4.82-4.82H77.2
			c2.66,0,4.82,2.16,4.82,4.82s-2.16,4.82-4.82,4.82H34.85v35.28h27.32c2.66,0,4.82,2.16,4.82,4.82S64.83,213.95,62.17,213.95z"/>
	</g>
	<g>
		<path class="st0" d="M30.04,169.04c-1.79,0-3.51-1-4.34-2.73C20.78,156.14-3.5,104.52,0.43,87.66
			c2.5-10.76,10.81-21.47,21.15-27.3c7.3-4.12,14.83-5.24,21.2-3.16C51,59.89,57.23,68.44,59.44,80.1c1.57,8.29,1,19.95-5.79,25.54
			c-6.27,5.17-2.65,17.17-2.61,17.29c0.81,2.54-0.59,5.25-3.13,6.06c-2.53,0.82-5.24-0.59-6.06-3.12
			c-0.24-0.74-5.69-18.31,5.66-27.67c2.32-1.92,3.97-8.29,2.45-16.32c-1.5-7.9-5.49-13.99-10.18-15.52
			c-3.77-1.23-8.56-0.38-13.48,2.39c-7.98,4.5-14.61,12.97-16.5,21.09c-2.44,10.48,13.77,49.9,24.56,72.28
			c1.15,2.4,0.15,5.28-2.25,6.43C31.45,168.88,30.74,169.04,30.04,169.04z"/>
	</g>
	<g>
		<path class="st0" d="M18.51,73.12c-2.35,0-4.4-1.72-4.76-4.11c-0.04-0.29-1.07-7.3-1.4-15.71C11.92,41.66,15.5,3.44,80.02,0.14
			c40.32-2.02,56.54,18.93,63.05,36.91c0.91,2.5-0.39,5.26-2.89,6.17c-2.5,0.91-5.27-0.39-6.17-2.89
			c-7.86-21.7-25.86-31.97-53.5-30.56C24.8,12.61,21.63,43.53,21.99,52.93c0.3,7.86,1.29,14.6,1.3,14.66
			c0.39,2.63-1.43,5.08-4.06,5.47C18.99,73.1,18.75,73.12,18.51,73.12z"/>
	</g>
	<g>
		<path class="st0" d="M64.63,72.21c-9.94,0-16.33-0.65-16.79-0.7c-2.65-0.28-4.56-2.65-4.29-5.29c0.28-2.65,2.61-4.54,5.29-4.29
			c0.19,0.02,19.51,1.97,43.49-1.09c2.63-0.33,5.06,1.53,5.39,4.17c0.34,2.64-1.53,5.05-4.17,5.39
			C82.48,71.81,72.45,72.21,64.63,72.21z"/>
	</g>
</g>
</svg>
